<!DOCTYPE svg PUBLIC "-//W3C//DTD SVG 1.1//EN" "http://www.w3.org/Graphics/SVG/1.1/DTD/svg11.dtd">
<!-- Uploaded to: SVG Repo, www.svgrepo.com, Transformed by: SVG Repo Mixer Tools -->
<svg version="1.0" id="Layer_1" xmlns="http://www.w3.org/2000/svg" xmlns:xlink="http://www.w3.org/1999/xlink" width="800px" height="800px" viewBox="-6.4 -6.4 76.80 76.80" enable-background="new 0 0 64 64" xml:space="preserve" fill="#000000">
<g id="SVGRepo_bgCarrier" stroke-width="0">
<path transform="translate(-6.4, -6.4), scale(2.4)" d="M16,31.378464276591938C18.592672389688282,30.822279104560874,19.671543435180343,27.662062058348905,21.948535923535623,26.30316645021236C24.178109158267066,24.972570371310134,27.835273992638722,25.830826658973894,29.097592689262513,23.561898664881788C30.365993901735965,21.282037781557577,28.131887573885518,18.569638470762435,27.680705334991217,16C27.31420808263103,13.9126717368099,27.633761313272096,11.72591629111929,26.68654020197725,9.83012313768268C25.71081412358348,7.87727939614081,23.9550445439866,6.532156955876909,22.261741981531188,5.154344744100976C20.304511079005874,3.5617784192415805,18.520573485574737,1.2518360237029047,16.000000000000004,1.1346626107891389C13.479580170044283,1.0174963408344626,11.583689582232028,3.3044947876915023,9.392868118981525,4.556111889767866C7.1913503367694815,5.813839802773417,4.067865687286401,6.202327121270033,3.0584345283428824,8.528183691203587C2.0329132546929696,10.891113912638072,4.48261918672487,13.42474329452005,4.426174391061068,15.999999999999998C4.367845452914408,18.66121946796306,1.9656023854411937,21.11261361579158,2.7267002263426487,23.66334319735566C3.4943258502082815,26.235949873051336,6.048583768482905,27.867003728134726,8.369661965096983,29.216133155377275C10.694833124143887,30.56764162183995,13.37040304722524,31.94257057840172,16,31.378464276591938" fill="#2986cc" strokewidth="0"/>
</g>
<g id="SVGRepo_tracerCarrier" stroke-linecap="round" stroke-linejoin="round"/>
<g id="SVGRepo_iconCarrier"> <g> <g> <path fill="#216396" d="M63.329,57.781C62.954,57.219,53.892,44,31.999,44C10.112,44,1.046,57.219,0.671,57.781 c-1.223,1.84-0.727,4.32,1.109,5.547c1.836,1.223,4.32,0.727,5.547-1.109C7.397,62.117,14.347,52,31.999,52 c17.416,0,24.4,9.828,24.674,10.219C57.446,63.375,58.712,64,60.009,64c0.758,0,1.531-0.219,2.211-0.672 C64.056,62.102,64.556,59.621,63.329,57.781z"/> <path fill="#216396" d="M31.999,40c8.836,0,16-7.16,16-16v-8c0-8.84-7.164-16-16-16s-16,7.16-16,16v8 C15.999,32.84,23.163,40,31.999,40z M23.999,16c0-4.418,3.586-8,8-8c4.422,0,8,3.582,8,8v8c0,4.418-3.578,8-8,8 c-4.414,0-8-3.582-8-8V16z"/> </g> <path fill="#2986cc" d="M23.999,16c0-4.418,3.586-8,8-8c4.422,0,8,3.582,8,8v8c0,4.418-3.578,8-8,8c-4.414,0-8-3.582-8-8V16z"/> </g> </g>
</svg>