<!DOCTYPE svg PUBLIC "-//W3C//DTD SVG 1.1//EN" "http://www.w3.org/Graphics/SVG/1.1/DTD/svg11.dtd">
<!-- Uploaded to: SVG Repo, www.svgrepo.com, Transformed by: SVG Repo Mixer Tools -->
<svg height="800px" width="800px" version="1.1" id="Layer_1" xmlns="http://www.w3.org/2000/svg" xmlns:xlink="http://www.w3.org/1999/xlink" viewBox="0 0 512 512" xml:space="preserve" fill="#92afff" stroke="#92afff" stroke-width="0.00512">
<g id="SVGRepo_bgCarrier" stroke-width="0"/>
<g id="SVGRepo_tracerCarrier" stroke-linecap="round" stroke-linejoin="round"/>
<g id="SVGRepo_iconCarrier"> <path style="fill:#2f66fe;" d="M496.485,144.713C506.444,132.375,512,116.894,512,100.848c0-38.498-31.32-69.818-69.818-69.818 c-16.049,0-31.528,5.556-43.867,15.515H113.686C101.347,36.586,85.867,31.03,69.818,31.03C31.319,31.03,0,62.351,0,100.848 c0,16.046,5.556,31.528,15.515,43.864v222.571C5.556,379.622,0,395.104,0,411.151c0,38.498,31.319,69.818,69.818,69.818 c16.046,0,31.527-5.556,43.866-15.515h284.63c12.339,9.959,27.822,15.515,43.866,15.515c38.498,0,69.818-31.32,69.818-69.818 c0-16.047-5.556-31.53-15.515-43.868V144.713H496.485z"/> <path style="fill:#2f66fe92afff;" d="M496.485,144.713C506.444,132.375,512,116.894,512,100.848c0-38.498-31.32-69.818-69.818-69.818 c-16.049,0-31.528,5.556-43.867,15.515H256v418.909h142.316c12.339,9.959,27.822,15.515,43.866,15.515 c38.498,0,69.818-31.32,69.818-69.818c0-16.047-5.556-31.53-15.515-43.868V144.713z"/> </g>
</svg>