<!DOCTYPE svg PUBLIC "-//W3C//DTD SVG 1.1//EN" "http://www.w3.org/Graphics/SVG/1.1/DTD/svg11.dtd">
<!-- Uploaded to: SVG Repo, www.svgrepo.com, Transformed by: SVG Repo Mixer Tools -->
<svg version="1.0" id="Layer_1" xmlns="http://www.w3.org/2000/svg" xmlns:xlink="http://www.w3.org/1999/xlink" width="256px" height="256px" viewBox="-6.4 -6.4 76.80 76.80" enable-background="new 0 0 64 64" xml:space="preserve" fill="#c8197f" stroke="#c8197f" stroke-width="0.00064" transform="rotate(0)">
<g id="SVGRepo_bgCarrier" stroke-width="0">
<path transform="translate(-6.4, -6.4), scale(2.4)" d="M16,28.106592940432684C17.710261033892298,28.19515598671816,19.341885403285406,27.642687242736717,21.0087927443948,27.249932696775343C22.939429062841768,26.7950386711941,25.214945753346562,26.95750357619718,26.656998698108765,25.595604727853946C28.086526043666364,24.24553526427326,27.983794100265495,21.961233187539023,28.58950774806657,20.090579033223612C29.194704506164843,18.221521213865117,30.169909836726074,16.465379323583964,30.248962183339625,14.502373726390548C30.332465668528208,12.428838710261717,30.17629471536467,10.209074194874281,29.057841317300213,8.461051800421309C27.94390462531001,6.720088531883306,26.036697390321823,5.553773484074395,24.086084802245445,4.870459070792652C22.27578884584441,4.236298639922895,20.225222811003608,5.304525253034534,18.396312268016516,4.726237152176916C16.31465585729996,4.068032661526845,15.061368964909557,1.2103449825176307,12.881281362893674,1.3275823968779488C10.82260362302808,1.4382908174936204,9.483157920420927,3.6547830818901756,8.20722843515726,5.274170107788594C7.078392178290367,6.706869022459591,6.697768395999731,8.529493246407958,5.910472788767066,10.174808748598604C5.176606006179145,11.708466986803217,4.423715045049308,13.171038394576637,3.693759327943157,14.706561985168092C2.698738786879442,16.799671852138587,0.6150657917687586,18.63048343937207,0.792320712418972,20.941274534528286C0.9610949942841134,23.141507431842136,2.6534139072487357,25.208058994119913,4.581617217387096,26.281158036805472C6.5403386305548965,27.371241256923607,9.003447569382645,26.389008582170902,11.21696214974273,26.742878902653572C12.872141108544788,27.007489180717418,14.326045982841135,28.0199099931144,16,28.106592940432684" fill="#c90076" strokewidth="0"/>
</g>
<g id="SVGRepo_tracerCarrier" stroke-linecap="round" stroke-linejoin="round"/>
<g id="SVGRepo_iconCarrier"> <g> <path fill="#920256" d="M63.328,57.781C62.953,57.219,53.891,44,32,44S1.047,57.219,0.672,57.781 c-1.227,1.84-0.727,4.32,1.109,5.547c1.836,1.223,4.32,0.727,5.547-1.109C7.398,62.117,14.344,52,32,52 c17.414,0,24.398,9.828,24.672,10.219C57.445,63.375,58.711,64,60.008,64c0.758,0,1.531-0.219,2.211-0.672 C64.055,62.102,64.555,59.621,63.328,57.781z"/> <path fill="#920256" d="M20,40c2.211,0,4-1.789,4-4V16c0-4.418,3.586-8,8-8c4.422,0,8,3.582,8,8v20c0,2.211,1.789,4,4,4 s4-1.789,4-4V16c0-8.84-7.164-16-16-16s-16,7.16-16,16v20C16,38.211,17.789,40,20,40z"/> </g> </g>
</svg>